<svg id="Layer_1" data-name="Layer 1" xmlns="http://www.w3.org/2000/svg" viewBox="0 0 307 307"><defs><style>.cls-1{fill:#3859b3;}.cls-2{fill:#36c5f4;}.cls-3{fill:#3388de;}.cls-4{fill:#3848b3;}.cls-5{fill:#eef3ff;}.cls-6{fill:#f3f7ff;}</style></defs><title>oddvar_mush</title><g id="Layer_2" data-name="Layer 2"><rect class="cls-1" x="125" y="223" width="35" height="84"/><rect class="cls-2" x="143.58" y="129" width="34.42" height="34.42"/><rect class="cls-3" x="177.16" y="163" width="34.42" height="34.42"/><rect class="cls-3" x="143.16" y="163" width="34.42" height="34.42"/><rect class="cls-3" x="109.16" y="163" width="34.42" height="34.42"/><rect class="cls-2" x="207" y="85" width="17.58" height="17.58"/><rect class="cls-3" x="75.16" y="163" width="34.42" height="34.42"/><rect class="cls-1" x="41.16" y="197" width="34.42" height="34.42"/><rect class="cls-1" x="75.16" y="197" width="34.42" height="34.42"/><rect class="cls-1" x="109.16" y="197" width="34.42" height="34.42"/><rect class="cls-1" x="109.16" y="163" width="34.42" height="34.42"/><rect class="cls-1" x="75.16" y="163" width="34.42" height="34.42"/><rect class="cls-3" x="143.16" y="197" width="34.42" height="34.42"/><rect class="cls-1" x="177.16" y="197" width="34.42" height="34.42"/><rect class="cls-4" x="125.16" y="231" width="34.42" height="34.42"/><rect class="cls-1" x="211.16" y="197" width="34.42" height="34.42"/><rect class="cls-3" x="109" y="129" width="34.42" height="34.42"/><rect class="cls-3" x="198.4" y="75.81" width="34.42" height="34.42"/><rect class="cls-2" x="209.19" y="86.6" width="12.84" height="12.84"/><rect class="cls-2" x="251.89" y="56.6" width="8.8" height="8.8"/><rect class="cls-3" x="247.59" y="52" width="17.23" height="17.23"/><rect class="cls-5" x="252.99" y="57.4" width="6.43" height="6.43"/><rect class="cls-2" x="70.89" y="71.6" width="8.8" height="8.8"/><rect class="cls-2" x="66.59" y="67" width="17.23" height="17.23"/><rect class="cls-6" x="71.99" y="72.4" width="6.43" height="6.43"/><rect class="cls-2" x="243" y="134" width="17.58" height="17.58"/><rect class="cls-3" x="234.4" y="124.81" width="34.42" height="34.42"/><rect class="cls-6" x="245.19" y="135.6" width="12.84" height="12.84"/><rect class="cls-2" x="33" y="113" width="17.58" height="17.58"/><rect class="cls-3" x="24.4" y="103.81" width="34.42" height="34.42"/><rect class="cls-5" x="35.19" y="114.6" width="12.84" height="12.84"/></g></svg>